<svg xmlns="http://www.w3.org/2000/svg" viewBox="0 0 2181.9221 2181.9216">
  <path fill="#fc5b46" d="M 90.960859,5.8382775e-6 A 90.969599,90.969599 0 0 0 3.8345236e-5,90.960305 V 2090.9602 A 90.969599,90.969599 0 0 0 90.960859,2181.9216 H 2090.9613 a 90.969599,90.969599 0 0 0 90.9608,-90.9614 V 90.960305 A 90.969599,90.969599 0 0 0 2090.9613,5.8382775e-6 Z M 525.79535,273.00201 h 5e-4 1130.32895 a 66.49292,59.611994 0 0 1 66.4863,59.60559 v 335.56453 a 66.49292,59.611994 0 0 1 -66.4863,59.60566 H 1534.664 a 66.49292,59.611994 0 0 1 -63.2577,-41.25743 c -17.5047,-48.50649 -34.4177,-86.86765 -49.5039,-113.91759 a 66.49292,59.611994 0 0 1 -0.5602,-1.02992 c -14.2092,-26.75161 -28.5354,-44.50053 -39.2235,-53.66597 a 66.49292,59.611994 0 0 1 -1.0557,-0.92553 c -10.6985,-9.59137 -21.749,-15.52255 -36.5399,-19.50061 -15.2453,-4.10032 -42.3908,-7.48689 -78.8071,-7.48689 H 969.05875 v 485.24842 h 188.82975 c 28.3072,0 45.5685,-4.5308 52.2593,-7.62227 6.8501,-3.93471 15.1729,-11.496 23.9164,-28.15332 a 66.49292,59.611994 0 0 1 0.6904,-1.27641 c 9.2659,-16.61387 22.2899,-52.31289 34.0775,-102.33381 a 66.49292,59.611994 0 0 1 65.0508,-47.286 h 116.5035 a 66.49292,59.611994 0 0 1 66.4859,59.60618 v 468.90106 a 66.49292,59.611994 0 0 1 -66.4859,59.6062 h -116.5035 a 66.49292,59.611994 0 0 1 -64.9257,-46.7667 c -11.758,-47.7868 -24.5869,-82.2784 -34.2026,-99.5195 a 66.49292,59.611994 0 0 1 -0.3369,-0.6144 c -10.1964,-18.8203 -19.609,-26.4369 -24.5117,-29.0008 a 66.49292,59.611994 0 0 1 -2.8184,-1.5601 c -2.0166,-1.1791 -18.4177,-6.9877 -49.1991,-6.9877 H 969.05875 v 375.9605 c 0,42.1276 2.9909,74.7158 7.4538,95.2929 4.4347,20.4466 11.1738,32.7587 16.1272,38.5873 5.567,6.5506 12.41645,11.56 24.77565,16.1783 18.2641,5.9875 42.8947,12.3347 73.2679,18.4614 a 66.49292,59.611994 0 0 1 51.8914,58.1531 v 54.4457 a 66.49292,59.611994 0 0 1 -66.4864,59.6057 H 525.79585 a 66.49292,59.611994 0 0 1 -66.4864,-59.6057 v -54.4457 a 66.49292,59.611994 0 0 1 49.8735,-57.7148 c 45.8505,-10.608 73.2256,-24.5152 74.4492,-25.1696 4.9438,-4.5019 9.8673,-11.6292 12.916,-28.0288 a 66.49292,59.611994 0 0 1 0.3173,-1.5776 c 4.1547,-19.156 7.4538,-57.9118 7.4538,-110.8486 V 610.39271 c 0,-49.67263 -2.453,-85.52248 -5.3495,-101.62274 a 66.49292,59.611994 0 0 1 -0.051,-0.28991 c -3.1562,-18.109 -8.6073,-27.889 -9.6971,-29.27314 a 66.49292,59.611994 0 0 1 -2.4143,-3.29231 c -3.064,-4.49496 -5.5865,-6.69638 -11.4159,-9.44697 a 66.49292,59.611994 0 0 1 -2.3476,-1.1622 c -5.393,-2.79912 -29.7391,-11.87537 -65.3299,-20.89278 a 66.49292,59.611994 0 0 1 -48.4048,-57.35929 V 332.6076 a 66.49292,59.611994 0 0 1 66.4864,-59.60559 z"/>
</svg>
